<svg width="125" height="24" viewBox="0 0 125 24" fill="none" xmlns="http://www.w3.org/2000/svg">
<g clip-path="url(#clip0_3_5)">
<path fill-rule="evenodd" clip-rule="evenodd" d="M0 24H23.936V0H0V24ZM25.266 24H49.202V0H25.266V24ZM74.468 24H50.532V0H74.468V24ZM75.798 24H99.734V0H75.798V24ZM125 24H101.064V0H125V24Z" fill="#FF690F"/>
<path fill-rule="evenodd" clip-rule="evenodd" d="M10.287 11.549V6H7.38V18H10.287V12.452L13.348 18H16.556L13.226 12L16.556 6H13.348L10.287 11.549ZM35.072 16.273L34.552 18H31.448L35.395 6H39.091L43.021 18H39.827L39.307 16.273H35.072ZM37.189 9.436L35.789 13.916H38.589L37.189 9.436ZM63.98 18H61.074V12.71L57.144 6H60.607L62.545 9.688L64.447 6H67.856L63.98 12.71V18ZM85.604 16.273L85.084 18H81.979L85.927 6H89.623L93.553 18H90.359L89.839 16.273H85.604ZM87.721 9.436L86.321 13.916H89.121L87.721 9.436ZM111.351 11.549V6H108.444V18H111.351V12.452L114.412 18H117.62L114.29 12L117.62 6H114.412L111.351 11.549Z" fill="#FAFAFC"/>
</g>
<defs>
<clipPath id="clip0_3_5">
<rect width="125" height="24" fill="white"/>
</clipPath>
</defs>
</svg>
